<svg width="715" height="157" viewBox="0 0 715 157" fill="none" xmlns="http://www.w3.org/2000/svg">
<path d="M149.529 84.9822C149.529 84.9822 158.119 69.9622 154.718 59.0138C154.569 58.5421 154.42 58.12 154.271 57.6731C154.122 57.2511 153.973 56.829 153.799 56.4318C149.827 46.7495 140.418 40.394 129.991 39.6988L117.106 38.8547L116.262 25.9698C115.567 15.5428 109.211 6.13356 99.529 2.16134C99.1069 1.98756 98.7097 1.8386 98.2877 1.68964C97.8408 1.54068 97.4187 1.39172 96.947 1.24277C85.9986 -2.18328 70.9786 6.43148 70.9786 6.43148L0 43.5718C6.47969 55.7119 21.1769 60.6771 33.6149 55.1657C33.8384 55.6622 34.0866 56.1587 34.3349 56.6553C40.8642 69.1181 56.0332 74.133 68.6698 68.1747C69.2656 72.8421 71.3014 77.3356 74.8764 80.9106C78.501 84.5353 83.0939 86.6207 87.8358 87.1669C81.7781 99.8035 86.7682 115.072 99.3056 121.626C99.8021 121.874 100.299 122.122 100.795 122.346C95.2837 134.784 100.274 149.481 112.389 155.961L149.529 84.9822Z" fill="#4012AB"/>
<path d="M226.543 48.2338C242.283 48.2338 249.979 56.6995 249.979 70.3789C249.979 84.0582 242.283 92.4495 226.543 92.4495H204.572V108.09H195.237V48.2338H226.543ZM225.252 84.1575C235.257 84.1575 240.645 80.0612 240.645 70.3789C240.645 60.6966 235.257 56.5258 225.252 56.5258H204.547V84.1575H225.252Z" fill="#161236"/>
<path d="M294.444 91.7792L279.821 58.4126L265.099 91.7792L261.772 99.4009L257.924 108.115H248.167L272.72 52.8515C273.962 50.0461 276.742 48.2338 279.821 48.2338C282.899 48.2338 285.68 50.0461 286.921 52.8515L311.4 108.115H301.643L297.795 99.4009L294.468 91.7792H294.444Z" fill="#161236"/>
<path d="M685.708 91.7792L671.085 58.4126L656.363 91.7792L653.036 99.4009L649.188 108.115H639.431L663.984 52.8515C665.226 50.0461 668.006 48.2338 671.085 48.2338C674.163 48.2338 676.944 50.0461 678.185 52.8515L702.664 108.115H692.907L689.059 99.4009L685.732 91.7792H685.708Z" fill="#161236"/>
<path d="M686.7 84.4803H653.806V92.7971H686.7V84.4803Z" fill="#161236"/>
<path d="M295.437 84.4803H262.542V92.7971H295.437V84.4803Z" fill="#161236"/>
<path d="M567.161 59.8277L584.391 103.348C585.558 106.278 588.338 108.189 591.516 108.189C594.694 108.189 597.499 106.278 598.666 103.299L615.498 59.9766L620.96 108.239H629.798L623.716 54.6886C623.294 50.8157 620.017 47.8862 615.995 47.8862C612.867 47.8862 609.987 49.8475 608.845 52.777L591.491 97.4893L573.765 52.7273C572.598 49.7978 569.818 47.8862 566.516 47.8862C562.643 47.8862 559.366 50.7909 558.919 54.6638L552.712 108.264H561.551L567.161 59.8525V59.8277Z" fill="#161236"/>
<path d="M472.92 59.8277L490.15 103.348C491.317 106.278 494.097 108.189 497.275 108.189C500.453 108.189 503.258 106.278 504.425 103.299L521.257 59.9766L526.719 108.239H535.557L529.475 54.6886C529.053 50.8157 525.776 47.8862 521.754 47.8862C518.626 47.8862 515.746 49.8475 514.604 52.777L497.25 97.4893L479.524 52.7273C478.357 49.7978 475.577 47.8862 472.275 47.8862C468.402 47.8862 465.125 50.7909 464.678 54.6638L458.472 108.264H467.31L472.92 59.8525V59.8277Z" fill="#161236"/>
<path d="M411.699 109.406C401.867 109.406 394.072 106.402 388.337 100.518C382.602 94.6094 379.797 87.1864 379.797 78.1992C379.797 69.212 382.627 61.789 388.337 55.8803C394.072 49.9716 401.842 46.9924 411.699 46.9924C421.555 46.9924 429.226 49.9964 434.961 55.8803C440.696 61.789 443.6 69.212 443.6 78.1992C443.6 87.1864 440.696 94.6094 434.961 100.518C429.226 106.427 421.53 109.406 411.699 109.406ZM411.699 100.841C418.799 100.841 424.36 98.7058 428.283 94.5101C432.205 90.24 434.191 84.7534 434.191 78.1744C434.191 71.5954 432.23 66.1088 428.283 61.9131C424.36 57.643 418.799 55.5079 411.699 55.5079C404.598 55.5079 399.037 57.643 395.115 61.9131C391.192 66.1088 389.206 71.5706 389.206 78.1744C389.206 84.7782 391.167 90.24 395.115 94.5101C399.037 98.7058 404.598 100.841 411.699 100.841Z" fill="#161236"/>
<path d="M336.251 99.823H375.675V108.115H326.916V52.9011C326.916 50.3192 329.002 48.2338 331.584 48.2338C334.166 48.2338 336.251 50.3192 336.251 52.9011V99.823Z" fill="#161236"/>
</svg>
